<svg xmlns="http://www.w3.org/2000/svg" viewBox="0 0 100 100">
  <polygon points="50,5 75,25 85,55 65,90 35,90 15,55 25,25" fill="#0e1f4a" stroke="#3498db" stroke-width="2"/>
  <polygon points="50,18 68,33 75,56 60,80 40,80 25,56 32,33" fill="#1a3a7a" stroke="#3498db" stroke-width="1" opacity="0.6"/>
  <polygon points="50,30 62,42 66,56 55,70 45,70 34,56 38,42" fill="#3498db" opacity="0.25"/>
  <line x1="50" y1="5" x2="50" y2="30" stroke="#3498db" stroke-width="0.5" opacity="0.6"/>
  <line x1="75" y1="25" x2="62" y2="42" stroke="#3498db" stroke-width="0.5" opacity="0.6"/>
  <line x1="85" y1="55" x2="66" y2="56" stroke="#3498db" stroke-width="0.5" opacity="0.6"/>
  <line x1="65" y1="90" x2="55" y2="70" stroke="#3498db" stroke-width="0.5" opacity="0.6"/>
  <line x1="35" y1="90" x2="45" y2="70" stroke="#3498db" stroke-width="0.5" opacity="0.6"/>
  <line x1="15" y1="55" x2="34" y2="56" stroke="#3498db" stroke-width="0.5" opacity="0.6"/>
  <line x1="25" y1="25" x2="38" y2="42" stroke="#3498db" stroke-width="0.5" opacity="0.6"/>
</svg>
