<svg xmlns="http://www.w3.org/2000/svg" viewBox="0 0 100 100">
  <polygon points="50,5 80,20 95,50 80,80 50,95 20,80 5,50 20,20" fill="#0d3d2e" stroke="#2ecc71" stroke-width="2"/>
  <polygon points="50,15 72,25 83,50 72,75 50,85 28,75 17,50 28,25" fill="#1a5c40" stroke="#2ecc71" stroke-width="1" opacity="0.7"/>
  <polygon points="50,25 64,35 70,50 64,65 50,75 36,65 30,50 36,35" fill="#2ecc71" opacity="0.3"/>
  <line x1="50" y1="5" x2="50" y2="25" stroke="#2ecc71" stroke-width="0.5" opacity="0.5"/>
  <line x1="80" y1="20" x2="64" y2="35" stroke="#2ecc71" stroke-width="0.5" opacity="0.5"/>
  <line x1="95" y1="50" x2="70" y2="50" stroke="#2ecc71" stroke-width="0.5" opacity="0.5"/>
  <line x1="80" y1="80" x2="64" y2="65" stroke="#2ecc71" stroke-width="0.5" opacity="0.5"/>
  <line x1="50" y1="95" x2="50" y2="75" stroke="#2ecc71" stroke-width="0.5" opacity="0.5"/>
  <line x1="20" y1="80" x2="36" y2="65" stroke="#2ecc71" stroke-width="0.5" opacity="0.5"/>
  <line x1="5" y1="50" x2="30" y2="50" stroke="#2ecc71" stroke-width="0.5" opacity="0.5"/>
  <line x1="20" y1="20" x2="36" y2="35" stroke="#2ecc71" stroke-width="0.5" opacity="0.5"/>
</svg>
